<svg xmlns="http://www.w3.org/2000/svg"
     viewBox="0 0 448 512"
     width="40"
     height="40"
     fill="currentColor">
  <path d="M380.9 97.1C339-3.8 242.5-34.6 155.6 14.6 68.8 63.7 32.3 161.4 70.1 253.6L2.6 506.7l256-66.7c84.2 27.5 177.4-11.3 219.2-90.5 41.9-79.2 16.9-175.9-97.1-252.4zM256 416c-27.6 0-54.5-6.7-78.9-19.4l-5.7-3-75.7 19.7 20.2-73.5-3.7-6.1c-14.8-24.6-22.6-52.8-22.6-81.7 0-86.7 70.5-157.2 157.2-157.2 42 0 81.4 16.4 110.9 45.9 29.5 29.5 45.9 68.8 45.9 110.9 0 86.7-70.5 157.2-157.2 157.2z"/>
</svg>
